<svg width="32" height="18" viewBox="0 0 32 18" fill="none" xmlns="http://www.w3.org/2000/svg"
    svg-inline="" role="presentation" focusable="false" class="Footer__footerLogo__ucsxG">
    <path fill="rgb(245,25,45)" fill-rule="evenodd" clip-rule="evenodd"
        d="M12.143 11.094c-2.552 1.888-2.936 2.676-2.627 3.273a20.501 20.501 0 002.58 3.2v.023a11.358 11.358 0 01-4.046-3.097c-.935-1.264-3.596-5.474-3.596-5.474.297.142.634.314.992.495 1.573.799 3.54 1.796 4.173 1.443 5.736-5.593 8.835-8.558 10.954-9.222C26.517-.139 30.677.54 30.677.54 23.67 2.194 16.384 7.825 13.19 10.294c-.425.328-.777.6-1.046.8zm-.445 3.575a8.9 8.9 0 01-1.158-.645s8.482-6.043 13.5-8.429A24.683 24.683 0 0132 3.292a2.404 2.404 0 01-.949 1.622h-.047c-11.95 4.874-16.992 8.657-17.395 8.966 0 .007 4.862 1.918 7.59 1.37 2.727-.547 4.824-5.469 4.824-5.469l1.758-.54-9.578 2.893.525-.266.033-.011c.797-.409 2.504-1.253 5.313-2.567 3.348-1.575 6.669-2.893 6.669-2.893-1.11 3.083-4.653 9.767-7.789 10.791-1.167.375-7.158-.72-11.256-2.519zm7.03-2.8l.009-.005-.142.052.133-.048zm9.975-6.217zM1.812 11.596A17.537 17.537 0 010 7.996s4.478 4.178 6.662 5.703l-.059-.028c-.484-.112-3.928-.956-4.791-2.075z">
    </path>
</svg>